# xmcd
#
# Track frame offsets:
#	150
#	22950
#	56322
#	82494
#	112854
#	127062
#
# Disc length: 1996 seconds
#
# Revision: 0
# Processed by: cddbd v1.5.2PL0 Copyright (c) Steve Scherf et al.
# Submitted via: EasyCDDAExtractor 9.0.0.1
#
DISCID=4807ca06
DTITLE=Dio - Palladium Worcester MA 08-12-00 Master Disc 2
DYEAR=2000
DGENRE=Hard Rock
TTITLE0=Holy Diver
TTITLE1=Heaven and Hell
TTITLE2=Rainbow In The Dark
TTITLE3=The Last In Line
TTITLE4=Man On The Silver Mountain
TTITLE5=Long Live Rock and Roll
EXTD=
EXTT0=
EXTT1=
EXTT2=
EXTT3=
EXTT4=
EXTT5=
PLAYORDER=
